{
	"asset":{
		"generator":"Khronos glTF Blender I/O v4.3.47",
		"version":"2.0"
	},
	"extensionsUsed":[
		"KHR_materials_unlit"
	],
	"scene":0,
	"scenes":[
		{
			"name":"Scene",
			"nodes":[
				1
			]
		}
	],
	"nodes":[
		{
			"mesh":0,
			"name":"Cylinder",
			"scale":[
				0.04223286360502243,
				0.008522518910467625,
				0.04223286360502243
			],
			"translation":[
				0,
				0.004095902666449547,
				0
			]
		},
		{
			"children":[
				0
			],
			"mesh":1,
			"name":"Plane.003_final.001",
			"rotation":[
				0,
				0.7071068286895752,
				0,
				0.7071068286895752
			],
			"scale":[
				1,
				0.6455153226852417,
				1
			],
			"translation":[
				0.00030396674992516637,
				3.466763155302033e-05,
				0.0003039667208213359
			]
		}
	],
	"animations":[
		{
			"channels":[
				{
					"sampler":0,
					"target":{
						"node":1,
						"path":"translation"
					}
				},
				{
					"sampler":1,
					"target":{
						"node":1,
						"path":"rotation"
					}
				},
				{
					"sampler":2,
					"target":{
						"node":1,
						"path":"scale"
					}
				}
			],
			"name":"Plane.003_final.001Action.001",
			"samplers":[
				{
					"input":8,
					"interpolation":"LINEAR",
					"output":9
				},
				{
					"input":8,
					"interpolation":"LINEAR",
					"output":10
				},
				{
					"input":11,
					"interpolation":"STEP",
					"output":12
				}
			]
		},
		{
			"channels":[
				{
					"sampler":0,
					"target":{
						"node":1,
						"path":"rotation"
					}
				}
			],
			"name":"rotation",
			"samplers":[
				{
					"input":8,
					"interpolation":"LINEAR",
					"output":13
				}
			]
		}
	],
	"materials":[
		{
			"doubleSided":true,
			"extensions":{
				"KHR_materials_unlit":{}
			},
			"name":"Material.002",
			"pbrMetallicRoughness":{
				"baseColorTexture":{
					"index":0
				},
				"metallicFactor":0,
				"roughnessFactor":0.9
			}
		}
	],
	"meshes":[
		{
			"name":"Cylinder",
			"primitives":[
				{
					"attributes":{
						"POSITION":0,
						"NORMAL":1,
						"TEXCOORD_0":2
					},
					"indices":3,
					"material":0
				}
			]
		},
		{
			"name":"Plane.004",
			"primitives":[
				{
					"attributes":{
						"POSITION":4,
						"NORMAL":5,
						"TEXCOORD_0":6
					},
					"indices":7
				}
			]
		}
	],
	"textures":[
		{
			"sampler":0,
			"source":0
		}
	],
	"images":[
		{
			"mimeType":"image/png",
			"name":"Alice_RitaBorralhoSilva",
			"uri":"Alice_RitaBorralhoSilva.png"
		}
	],
	"accessors":[
		{
			"bufferView":0,
			"componentType":5126,
			"count":192,
			"max":[
				1.1198408603668213,
				2.6364355087280273,
				1.1198408603668213
			],
			"min":[
				-1.1198408603668213,
				0.6967465877532959,
				-1.1198408603668213
			],
			"type":"VEC3"
		},
		{
			"bufferView":1,
			"componentType":5126,
			"count":192,
			"type":"VEC3"
		},
		{
			"bufferView":2,
			"componentType":5126,
			"count":192,
			"type":"VEC2"
		},
		{
			"bufferView":3,
			"componentType":5123,
			"count":372,
			"type":"SCALAR"
		},
		{
			"bufferView":4,
			"componentType":5126,
			"count":12049,
			"max":[
				0.7270795106887817,
				0.1950186789035797,
				0.7354111075401306
			],
			"min":[
				-0.724131166934967,
				-0.1625005304813385,
				-0.7308886051177979
			],
			"type":"VEC3"
		},
		{
			"bufferView":5,
			"componentType":5126,
			"count":12049,
			"type":"VEC3"
		},
		{
			"bufferView":6,
			"componentType":5126,
			"count":12049,
			"type":"VEC2"
		},
		{
			"bufferView":7,
			"componentType":5123,
			"count":69792,
			"type":"SCALAR"
		},
		{
			"bufferView":8,
			"componentType":5126,
			"count":121,
			"max":[
				4
			],
			"min":[
				0
			],
			"type":"SCALAR"
		},
		{
			"bufferView":9,
			"componentType":5126,
			"count":121,
			"type":"VEC3"
		},
		{
			"bufferView":10,
			"componentType":5126,
			"count":121,
			"type":"VEC4"
		},
		{
			"bufferView":11,
			"componentType":5126,
			"count":2,
			"max":[
				4
			],
			"min":[
				0
			],
			"type":"SCALAR"
		},
		{
			"bufferView":12,
			"componentType":5126,
			"count":2,
			"type":"VEC3"
		},
		{
			"bufferView":13,
			"componentType":5126,
			"count":121,
			"type":"VEC4"
		}
	],
	"bufferViews":[
		{
			"buffer":0,
			"byteLength":2304,
			"byteOffset":0,
			"target":34962
		},
		{
			"buffer":0,
			"byteLength":2304,
			"byteOffset":2304,
			"target":34962
		},
		{
			"buffer":0,
			"byteLength":1536,
			"byteOffset":4608,
			"target":34962
		},
		{
			"buffer":0,
			"byteLength":744,
			"byteOffset":6144,
			"target":34963
		},
		{
			"buffer":0,
			"byteLength":144588,
			"byteOffset":6888,
			"target":34962
		},
		{
			"buffer":0,
			"byteLength":144588,
			"byteOffset":151476,
			"target":34962
		},
		{
			"buffer":0,
			"byteLength":96392,
			"byteOffset":296064,
			"target":34962
		},
		{
			"buffer":0,
			"byteLength":139584,
			"byteOffset":392456,
			"target":34963
		},
		{
			"buffer":0,
			"byteLength":484,
			"byteOffset":532040
		},
		{
			"buffer":0,
			"byteLength":1452,
			"byteOffset":532524
		},
		{
			"buffer":0,
			"byteLength":1936,
			"byteOffset":533976
		},
		{
			"buffer":0,
			"byteLength":8,
			"byteOffset":535912
		},
		{
			"buffer":0,
			"byteLength":24,
			"byteOffset":535920
		},
		{
			"buffer":0,
			"byteLength":1936,
			"byteOffset":535944
		}
	],
	"samplers":[
		{
			"magFilter":9729,
			"minFilter":9987
		}
	],
	"buffers":[
		{
			"byteLength":537880,
			"uri":"ritaspillow_bezier-animation-test.bin"
		}
	]
}
